PathFileType	4	(X/Y/Z)	C:/Users/opensim2020/Desktop/walking_exp_matlab/subject03_walking17_run.trc	
DataRate	CameraRate	NumFrames	NumMarkers	Units	OrigDataRate	OrigDataStartFrame	OrigNumFrames	
100.00	100.00	7	50	mm	100.00	270	132	
Frame#	Time	RTOE			LTHI			RWRB			LTIB			RELB			RUPA			RKNE			RTHI			RASI			RFRM			RWRA			RSHO			STRN			LFRM			CLAV			LWRB			LASI			RFHD			LFIN			LSHO			RTIB			LWRA			RBHD			LHEE			RANK			RHEE			C7			RFIN			LBHD			LUPA			LTOE			RBAK			LELB			LFHD			RPSI			LPSI			T10			LKNE			LANK			*39			*40			*41			*42			*43			*44			*45			*46			*47			*48			*49			
		X1	Y1	Z1	X2	Y2	Z2	X3	Y3	Z3	X4	Y4	Z4	X5	Y5	Z5	X6	Y6	Z6	X7	Y7	Z7	X8	Y8	Z8	X9	Y9	Z9	X10	Y10	Z10	X11	Y11	Z11	X12	Y12	Z12	X13	Y13	Z13	X14	Y14	Z14	X15	Y15	Z15	X16	Y16	Z16	X17	Y17	Z17	X18	Y18	Z18	X19	Y19	Z19	X20	Y20	Z20	X21	Y21	Z21	X22	Y22	Z22	X23	Y23	Z23	X24	Y24	Z24	X25	Y25	Z25	X26	Y26	Z26	X27	Y27	Z27	X28	Y28	Z28	X29	Y29	Z29	X30	Y30	Z30	X31	Y31	Z31	X32	Y32	Z32	X33	Y33	Z33	X34	Y34	Z34	X35	Y35	Z35	X36	Y36	Z36	X37	Y37	Z37	X38	Y38	Z38	X39	Y39	Z39	X40	Y40	Z40	X41	Y41	Z41	X42	Y42	Z42	X43	Y43	Z43	X44	Y44	Z44	X45	Y45	Z45	X46	Y46	Z46	X47	Y47	Z47	X48	Y48	Z48	X49	Y49	Z49	X50	Y50	Z50	

67	0.660	302.36020	128.09976	31.98614	111.17426	412.30209	632.57581	425.25504	540.45117	1001.47302	146.80406	375.20670	342.73346	539.32831	367.14841	1077.97595	521.43604	348.99927	1167.31042	382.96899	274.55838	451.35910	424.33206	282.12256	631.55994	385.39542	379.44373	916.71991	477.10260	465.01654	1035.37769	399.64719	528.21582	1047.25952	410.54416	375.90634	1365.40723	249.39159	453.96585	1154.61877	12.90939	303.50900	1046.05615	252.62665	422.53662	1325.30579	31.87099	378.90735	968.04407	149.00534	384.27786	910.94556	324.27493	385.70297	1623.42236	67.30989	421.47278	899.18463	104.82324	353.01929	1373.91296	383.70618	157.00604	294.97766	87.07577	382.70694	985.06683	313.40787	286.41443	1538.96924	213.52338	167.43396	198.50981	336.09641	23.51036	128.50996	291.22491	-32.81088	127.01187	253.79202	295.67621	1402.09033	391.73737	602.35431	1020.42828	183.53865	299.07016	1535.01868	8.94134	253.52527	1221.35046	212.80829	308.32224	79.69040	357.26581	246.31413	1237.07483	-15.37109	217.34381	1118.74951	191.63776	403.15332	1620.06555	340.39963	226.42892	972.78210	191.02609	224.76924	954.74133	260.03427	242.11316	1099.43958	148.98537	508.18314	484.08212	180.04333	225.14639	197.28377							231.86551	298.08783	1646.98767																								 
68	0.670	302.68930	129.78847	32.05078	113.28490	451.06796	642.69122	417.08286	582.41730	1020.48242	150.19856	428.93546	341.14969	536.51770	408.84369	1086.03601	519.19385	390.32968	1174.03650	384.65915	290.71875	459.05130	425.25159	308.15955	638.37469	386.41449	415.22388	921.81903	471.31830	506.65268	1049.83923	393.35321	567.98181	1066.44568	409.37784	412.40942	1373.19043	247.86812	488.57996	1161.97009	10.64534	323.24405	1060.24353	251.16714	455.95224	1332.66650	27.54073	397.94611	980.84033	151.08669	420.30740	919.32526	324.28351	419.77533	1629.90698	61.55774	443.11432	913.46191	105.90535	382.74207	1381.91174	385.78787	168.75282	305.63638	82.64901	403.85657	998.42761	313.50137	320.16632	1546.01733	219.07248	237.41733	176.47638	337.73318	34.49804	139.79512	292.04642	-20.16641	141.67369	255.14928	329.12451	1408.42761	382.72266	643.15210	1042.44177	183.61102	332.19019	1542.52380	9.40461	279.30164	1234.12903	217.43622	389.24805	71.47757	360.76627	282.94583	1243.73438	-16.14601	238.70747	1133.98328	191.31435	436.70151	1627.11218	342.36819	263.01981	979.24023	192.87381	260.60934	962.67480	263.15482	277.38257	1105.50012	152.12943	548.72113	496.55939	185.08905	294.82523	180.70607							232.65007	331.64490	1654.37427																								 
69	0.680	302.78378	131.39441	31.79349	114.92008	489.61322	652.96436	409.73053	623.45184	1038.99609	153.81030	481.49786	339.64435	533.60999	449.76328	1094.27356	516.92279	430.99323	1181.09985	386.47665	308.05908	467.39169	426.14236	334.96851	645.28772	387.26419	451.46796	927.10437	465.88095	547.33990	1064.08435	387.30490	606.42206	1084.67590	408.21353	448.36746	1380.99670	246.39195	523.19897	1169.11853	9.02057	344.39197	1074.50806	249.86392	489.33032	1339.86670	24.03484	417.95438	993.69745	152.88615	456.93399	927.94238	323.85593	453.57870	1636.10315	56.32852	465.45721	927.27728	107.04254	413.23569	1389.67053	388.27792	182.00276	316.84854	79.06969	425.84079	1011.30310	313.51495	353.82056	1552.91931	225.42874	309.95810	155.50415	339.80203	47.74286	150.71530	292.72629	-4.51120	156.07755	256.28284	362.40295	1414.36218	373.86017	682.14526	1063.37939	183.59996	365.28482	1549.80054	10.31649	306.19061	1246.61243	222.24904	470.43738	64.15041	363.73541	319.56049	1250.29492	-16.11365	261.14343	1149.13123	191.18306	470.16891	1633.82483	344.01346	299.99481	985.63727	194.68759	296.97974	970.67059	266.49622	312.52771	1111.38794	154.94658	587.38049	507.64969	190.37334	365.95801	164.92688							232.96851	366.06320	1661.34412																								 
70	0.690	302.80939	133.28699	31.49809	116.37653	528.05090	663.24054	402.10019	662.04742	1055.94495	157.08325	532.41022	337.96088	530.93121	489.85132	1102.44885	514.84222	470.65253	1188.27283	388.11465	326.51349	476.00290	426.91989	362.17212	652.09698	387.92560	488.15469	932.38599	460.84039	586.83972	1077.50793	381.68231	643.79114	1101.77600	406.98993	483.72537	1388.37537	245.23021	558.07233	1176.15466	8.02357	366.69238	1088.42358	248.75351	522.66083	1346.63794	21.10436	438.80872	1006.18726	154.75212	493.61203	936.52679	323.68790	487.60779	1641.87756	51.01593	488.92276	940.81494	108.23624	444.33652	1396.95557	390.77295	196.66884	328.21396	74.85470	449.49738	1024.09363	313.47537	387.46445	1559.38293	231.74828	384.32986	136.42152	342.11090	63.63544	160.39645	293.75064	14.39731	170.00102	257.31290	395.82437	1419.89368	365.71698	719.71716	1082.99121	183.52374	398.59293	1556.70178	11.29634	333.78589	1258.83533	227.20930	551.61346	57.70313	366.13837	355.84894	1256.75195	-15.50737	284.65259	1164.03406	191.29459	503.51755	1639.81470	345.64194	337.30380	991.72925	196.50896	333.80869	978.36041	269.85712	347.84860	1117.04626	157.74113	624.11456	517.01355	195.57330	438.35730	150.45663							233.27063	400.14551	1667.92371																								 
71	0.700	303.35522	136.48766	32.51555	117.98730	566.21857	672.92035	395.47513	699.77301	1071.66724	160.40399	582.12933	335.53601	528.46887	529.08191	1110.22253	513.31329	509.21530	1195.32910	389.66129	345.82108	484.49692	427.75162	389.64380	658.68018	388.51511	525.13483	937.12860	455.88062	624.88910	1089.44885	376.58704	679.99701	1117.37415	405.75897	518.54828	1395.10144	244.24443	592.92236	1182.69043	7.30198	389.90964	1101.68909	247.76489	555.91235	1352.70532	18.51651	460.65475	1018.01678	156.77895	530.66815	944.36499	323.68695	521.76404	1646.89685	46.43277	513.02802	953.79462	109.63726	475.89493	1403.59729	392.80661	213.18997	339.25705	71.51871	473.53995	1036.70471	313.36725	420.93842	1565.05261	237.86588	459.87552	120.24472	344.94904	82.11729	169.13945	295.21014	35.94256	183.72353	258.26465	429.19431	1424.79480	358.14258	755.94720	1100.89209	183.43845	431.39163	1562.49866	12.33808	361.99353	1270.71167	232.64360	632.12115	52.05646	367.98080	391.76788	1262.82117	-14.44479	309.18008	1178.22339	191.12015	537.07294	1644.98108	347.19162	374.72748	997.38739	198.38168	370.97601	985.41730	273.01358	382.50943	1122.25366	160.48549	658.91785	524.05841	200.52142	511.25098	137.44888							233.50185	434.17859	1673.72034																								 
72	0.710	304.20056	142.89128	37.60506	120.22390	603.81995	681.32312	389.36652	736.27826	1085.57935	163.23222	631.17279	332.17191	526.47528	567.60687	1117.36816	512.33374	546.92896	1202.09351	391.35895	366.14511	492.74231	428.77115	417.51285	664.80762	389.00381	562.23193	941.13873	451.89255	662.36230	1100.52368	371.69977	714.56671	1131.04651	404.44962	552.90509	1400.90918	243.56541	627.24072	1188.17456	6.44886	414.29694	1114.29480	247.03639	589.04163	1357.79565	16.19247	483.91251	1029.31909	158.47322	567.42535	951.03351	323.20166	555.31622	1650.64417	42.83014	537.89569	965.80975	111.19061	507.92896	1409.54639	394.40533	231.65614	349.80917	68.21677	498.90750	1048.64587	313.21802	454.28687	1569.79736	242.97108	535.68488	107.79485	347.89050	101.34914	178.74352	297.95975	57.63571	197.76411	259.26035	462.48767	1428.90234	350.89264	790.53162	1116.61865	183.26907	464.47653	1567.37695	13.68117	390.88040	1281.82239	238.92134	711.14447	47.48249	369.43619	427.54263	1268.25122	-13.06316	334.58170	1191.51648	190.96294	570.60760	1649.07190	348.69031	412.29636	1002.33667	200.30676	407.43536	992.03674	275.75610	417.61655	1126.96472	162.61850	691.94159	528.28790	205.09947	584.92773	127.12791							233.54985	468.17682	1678.59631																								 
73	0.720	305.96896	151.02448	45.23500	123.13776	640.51666	687.59344	383.90842	771.70905	1097.45251	165.65379	680.13446	328.01837	524.97949	605.39520	1123.46899	511.82571	583.84351	1208.20374	393.20291	388.51361	500.41235	429.90228	445.95856	670.61334	389.62244	599.14325	944.16479	448.39780	698.76294	1109.86096	367.73578	748.91815	1142.81104	403.22668	586.85596	1405.57642	242.99524	661.76385	1192.78479	5.89572	439.32416	1125.78992	246.44591	622.16821	1361.83020	14.15591	508.28754	1039.95764	159.94983	604.03967	956.15900	323.30792	589.37872	1653.44641	39.98189	563.63269	976.56183	112.71994	540.63531	1414.52051	395.50949	252.43619	359.86838	65.38736	525.13763	1059.50696	313.04120	487.59750	1573.20557	247.54153	610.42371	99.07635	350.58109	121.18385	189.41364	301.03879	79.84929	212.91069	260.42978	495.42413	1432.20825	344.82260	824.72809	1130.24243	183.12215	497.70273	1571.06799	15.17320	420.39136	1292.13403	246.02548	788.05408	44.90749	370.61545	462.93723	1272.76306	-11.66758	360.88498	1203.76160	190.51950	604.28656	1651.99048	350.41269	449.98550	1006.56879	202.01242	444.32520	997.13867	277.76208	452.53128	1130.78333	164.33089	723.25128	529.67242	209.38383	657.39166	119.01839							233.50679	502.48285	1682.30469																								 
